<?xml version="1.0" encoding="utf-8"?>
<!-- Generator: Adobe Illustrator 21.0.0, SVG Export Plug-In . SVG Version: 6.00 Build 0)  -->
<svg version="1.1" id="Capa_1" xmlns="http://www.w3.org/2000/svg" xmlns:xlink="http://www.w3.org/1999/xlink" x="0px" y="0px"
	 viewBox="0 0 512 512" style="enable-background:new 0 0 512 512;" xml:space="preserve">
<style type="text/css">
	.st0{fill:#FEDAC6;}
	.st1{fill:#F5C4B0;}
	.st2{fill:#A15D30;}
	.st3{fill:#8F4F24;}
	.st4{fill:#EBEBEB;}
	.st5{fill:#FFCC00;}
	.st6{fill:#CC9900;}
</style>
<path class="st0" d="M349.9,196.3h8.5c14.1,0,25.6-11.5,25.6-25.6l0,0c0-14.1-11.5-25.6-25.6-25.6h-8.5"/>
<path class="st1" d="M162.1,196.3h-8.5c-14.1,0-25.6-11.5-25.6-25.6l0,0c0-14.1,11.5-25.6,25.6-25.6h8.5"/>
<path class="st0" d="M162.1,110.9v68.3l2,26.6c4.4,50.8,49,88.4,99.8,84c2.8-0.2,5.5-0.6,8.2-1.1c42-8.1,73.3-43.7,75.9-86.4
	l1.8-23.1v-68.3l-42.7-25.6L162.1,110.9z"/>
<path class="st1" d="M204.8,203.3v-99.8l-42.7,7.5v68.3l2,26.6c3.6,43.2,36.8,77.9,79.8,83.5l-17.1-22.2
	C212.6,248.9,204.8,226.4,204.8,203.3z"/>
<path class="st2" d="M307.2,25.6L307.2,25.6C302,15.1,291.3,8.5,279.6,8.5H128c0,18.9,15.3,34.1,34.1,34.1H128
	c0,18.8,15.3,34.1,34.1,34.1H128c0,18.8,15.3,34.1,34.1,34.1h34.1c41,0,84.2-15.5,110.9-25.6c11.6,12.3,26.4,21.1,42.7,25.6V68.3
	C349.9,44.7,330.8,25.6,307.2,25.6z"/>
<path class="st3" d="M128.4,80.6c1.9,17.2,16.4,30.2,33.7,30.3h34.1c28.5,0,86.5-17.7,110.9-25.6C245.9,86.8,157.1,86.5,128.4,80.6z
	"/>
<g>
	<path class="st4" d="M200.5,204.8L200.5,204.8c-21.2,0.1-38.3-17.1-38.4-38.2c0-0.1,0-0.1,0-0.2v-21.3h76.8v21.3
		c0.1,21.2-17.1,38.3-38.2,38.4C200.6,204.8,200.6,204.8,200.5,204.8z"/>
	<path class="st4" d="M311.5,204.8L311.5,204.8c-21.2,0.1-38.3-17.1-38.4-38.2c0-0.1,0-0.1,0-0.2v-21.3h76.8v21.3
		c0.1,21.2-17.1,38.3-38.2,38.4C311.6,204.8,311.5,204.8,311.5,204.8z"/>
</g>
<path class="st0" d="M256,401.1c31,0,59.1-18.5,71.3-47l3.8-8.5l-17.5-2c-8.6-1-15.1-8.4-15-17.1v-44.8h-85.3v44.5
	c0.1,8.7-6.4,16-15,17.1l-17.1,2l3.8,8.5C197.2,382.3,225.1,400.9,256,401.1z"/>
<path class="st5" d="M376,350.5l-44.8-5.3l-3.8,8.5c-16.9,39.4-62.6,57.6-102,40.7c-18.3-7.9-32.8-22.4-40.7-40.7l-3.8-8.5
	l-44.8,5.3c-33.9,4.5-59.2,33.5-59.2,67.7V512h358.4v-93.9C435.2,383.9,409.9,355,376,350.5z"/>
<path class="st6" d="M76.8,418.1V512h34.1V359.1C89.8,371.3,76.8,393.8,76.8,418.1z"/>
<rect x="76.8" y="469.3" class="st0" width="68.3" height="42.7"/>
<g>
	<rect x="76.8" y="469.3" class="st1" width="34.1" height="42.7"/>
	<path class="st1" d="M298.7,307.2v-25.6h-85.3v25.6C245.3,324.3,266.7,324.3,298.7,307.2z"/>
</g>
<rect x="366.9" y="469.3" class="st0" width="68.3" height="42.7"/>
<path d="M264.5,221.9h-25.6c-2.4,0-4.8-1.1-6.4-2.9c-1.6-1.8-2.4-4.3-2.1-6.7L239,144l16.9,2.1l-7.3,58.7h15.9L264.5,221.9
	L264.5,221.9z"/>
<path d="M240.4,256h-1.5v-17.1h1.5c13.3,0,25.8-5.2,35.2-14.6l12.1,12.1C275,249,258.2,256,240.4,256z"/>
<path d="M358.4,204.8h-8.5v-17.1h8.5c9.4,0,17.1-7.7,17.1-17.1c0-9.4-7.7-17.1-17.1-17.1h-8.5v-17.1h8.5c18.8,0,34.1,15.3,34.1,34.1
	S377.2,204.8,358.4,204.8z"/>
<path d="M162.1,204.8h-8.5c-18.8,0-34.1-15.3-34.1-34.1s15.3-34.1,34.1-34.1h8.5v17.1h-8.5c-9.4,0-17.1,7.7-17.1,17.1
	c0,9.4,7.7,17.1,17.1,17.1h8.5L162.1,204.8L162.1,204.8z"/>
<path d="M255.9,298.7c-23.7,0-46.4-8.3-64.7-23.7c-20.6-17.3-33.2-41.7-35.5-68.5l-2.1-26.7l0-68.9h17.1v68.3l2,26
	c3.9,45.9,44.7,80.2,90.5,76.2c2.5-0.2,5-0.5,7.5-1c38.1-7.4,66.4-39.7,68.8-78.6l1.8-23.3l0-93.2h17.1v93.9l-1.8,23.8
	c-2.8,46.5-36.9,85.3-82.7,94.2c-3.1,0.6-6.1,1-9.1,1.2C261.8,298.6,258.8,298.7,255.9,298.7z"/>
<path d="M349.9,119.5c-0.8,0-1.5-0.1-2.3-0.3c-15.9-4.4-30.5-12.6-42.5-23.9c-33.1,12.3-71.4,24.2-108.8,24.2h-34.1
	c-23.5,0-42.7-19.1-42.7-42.7c0-4.7,3.8-8.5,8.5-8.5h0c-5.4-7.1-8.6-16-8.6-25.6c0-4.7,3.8-8.5,8.5-8.5h0c-5.4-7.1-8.6-16-8.6-25.6
	c0-4.7,3.8-8.5,8.5-8.5h151.6c0,0,0.1,0,0.1,0c13.3,0,25.3,6.5,32.6,17.3c25.9,2.5,46.2,24.4,46.2,51v42.7c0,2.7-1.2,5.2-3.4,6.8
	C353.5,118.9,351.7,119.5,349.9,119.5z M138,85.3c3.5,9.9,13,17.1,24.1,17.1h34.1c41.5,0,86.4-16.9,107.9-25.1
	c3.2-1.2,6.8-0.4,9.2,2.1c7.9,8.4,17.4,15,27.9,19.5V68.3c0-18.8-15.3-34.1-34.1-34.1c-3.2,0-6.2-1.8-7.6-4.7
	c-3.8-7.6-11.7-12.2-20-12.3H138c3.5,9.9,13,17.1,24.1,17.1c4.7,0,8.5,3.8,8.5,8.5s-3.8,8.5-8.5,8.5H138c3.5,9.9,13,17.1,24.1,17.1
	c4.7,0,8.5,3.8,8.5,8.5s-3.8,8.5-8.5,8.5L138,85.3L138,85.3z"/>
<path d="M200.4,213.3c-12.5,0-24.2-4.8-33.1-13.6c-8.9-8.8-13.8-20.6-13.8-33.1v-21.5c0-4.7,3.8-8.5,8.5-8.5h76.8
	c4.7,0,8.5,3.8,8.5,8.5v21.3c0,12.5-4.8,24.3-13.6,33.1c-8.8,8.9-20.6,13.8-33.1,13.8h-0.2C200.5,213.3,200.5,213.3,200.4,213.3z
	 M170.7,153.6v12.8c0,16.5,13.4,29.9,29.8,29.9c0,0,0.1,0,0.1,0h0.2c16.4,0,29.7-13.4,29.7-29.9v-12.8H170.7z"/>
<path d="M311.4,213.3c-25.8,0-46.8-20.9-46.8-46.7v-21.5c0-4.7,3.8-8.5,8.5-8.5h76.8c4.7,0,8.5,3.8,8.5,8.5v21.3
	c0,12.5-4.8,24.3-13.6,33.1c-8.8,8.9-20.6,13.8-33.1,13.8H311.4C311.5,213.3,311.4,213.3,311.4,213.3z M281.6,153.6v12.8
	c0,16.5,13.4,29.9,29.8,29.9c0,0,0.1,0,0.1,0h0.2c7.9,0,15.4-3.1,21-8.8c5.6-5.6,8.7-13.1,8.7-21.1v-12.8H281.6z"/>
<rect x="238.9" y="136.5" width="34.1" height="17.1"/>
<circle cx="204.8" cy="162.1" r="17.1"/>
<circle cx="307.2" cy="162.1" r="17.1"/>
<path d="M85.3,512H68.3v-93.9c0-38.3,28.6-71,66.6-76.1l62.4-7.4c4.3-0.5,7.5-4.2,7.5-8.5v-44.5h17.1v44.5c0.1,13-9.6,24-22.5,25.5
	l-62.3,7.3c-29.4,3.9-51.7,29.4-51.7,59.2L85.3,512L85.3,512z"/>
<path d="M443.7,512h-17.1v-93.9c0-29.8-22.3-55.2-51.8-59.1l-62.2-7.3c-13-1.6-22.6-12.6-22.6-25.6v-44.5h17.1v44.5
	c0,4.4,3.2,8.1,7.5,8.6l62.3,7.3c38.1,5.1,66.7,37.8,66.8,76L443.7,512L443.7,512z"/>
<path d="M256,409.6C256,409.6,256,409.6,256,409.6c-34.6,0-65.6-20.5-79.2-52.2l-5.5-12.7L187,338l5.5,12.7
	c10.9,25.4,35.8,41.8,63.5,41.8c0,0,0.1,0,0.1,0c27.7,0,52.6-16.4,63.5-41.8L325,338l15.7,6.7l-5.5,12.7
	C321.6,389.1,290.5,409.6,256,409.6z"/>
<rect x="136.5" y="443.7" width="17.1" height="68.3"/>
<rect x="76.8" y="460.8" width="68.3" height="17.1"/>
<rect x="358.4" y="443.7" width="17.1" height="68.3"/>
<rect x="366.9" y="460.8" width="68.3" height="17.1"/>
</svg>
